<svg width="16" height="19" viewBox="0 0 16 19" fill="none" xmlns="http://www.w3.org/2000/svg">
<path d="M8 19C9.10457 19 10 18.1493 10 17.1H6C6 18.1493 6.89543 19 8 19Z" fill="#757575"/>
<path d="M14 10.222C14.0007 10.9776 14.3172 11.702 14.88 12.236L15.71 13.0245C15.8947 13.2014 15.9989 13.4403 16 13.6895V14.25C16 14.7747 15.5523 15.2 15 15.2H1C0.447715 15.2 0 14.7747 0 14.25V13.6895C0.00110462 13.4403 0.105256 13.2014 0.29 13.0245L1.12 12.236C1.68277 11.702 1.9993 10.9776 2 10.222V7C2 4.027 4.16229 1.55904 7 1.08296V0.475C7 0.212665 7.22386 0 7.5 0H8.5C8.77614 0 9 0.212665 9 0.475V1.08296C11.8377 1.55904 14 4.027 14 7V10.222Z" fill="#757575"/>
</svg>
